<svg xmlns="http://www.w3.org/2000/svg" viewBox="0 0 800 600" width="100%" height="100%">
  <defs>
    <linearGradient id="bgLight4" x1="0%" y1="0%" x2="100%" y2="100%">
      <stop offset="0%" stop-color="#ffffff"/>
      <stop offset="100%" stop-color="#f0f3f8"/>
    </linearGradient>
  </defs>

  <rect width="800" height="600" fill="url(#bgLight4)"/>

  <!-- Framing -->
  <path d="M 32 52 L 32 32 L 52 32" fill="none" stroke="rgba(0,0,0,0.5)" stroke-width="1.5"/>
  <path d="M 768 52 L 768 32 L 748 32" fill="none" stroke="rgba(0,0,0,0.5)" stroke-width="1.5"/>
  <path d="M 32 548 L 32 568 L 52 568" fill="none" stroke="rgba(0,0,0,0.5)" stroke-width="1.5"/>
  <path d="M 768 548 L 768 568 L 748 568" fill="none" stroke="rgba(0,0,0,0.5)" stroke-width="1.5"/>

  <!-- Metadata -->
  <text x="48" y="52" fill="rgba(0,0,0,0.6)" font-family="monospace" font-size="11" font-weight="600" letter-spacing="2">SPEC.04 // DISTRIBUTED TOPOLOGY</text>
  <text x="752" y="52" fill="rgba(0,0,0,0.4)" font-family="monospace" font-size="11" letter-spacing="2" text-anchor="end">CONSENSUS ENGINE</text>
  <text x="48" y="556" fill="rgba(0,0,0,0.4)" font-family="monospace" font-size="10" letter-spacing="1">STATE: SYNCHRONIZED</text>
  <text x="752" y="556" fill="rgba(0,0,0,0.5)" font-family="monospace" font-size="10" letter-spacing="2" text-anchor="end">SWISS DIGITAL SPEC</text>

  <!-- Decentralized Topology Network Diagram -->
  <g transform="translate(400, 290)">
    <circle r="140" fill="none" stroke="rgba(0,0,0,0.06)" stroke-width="1"/>
    <circle r="80" fill="none" stroke="rgba(0,0,0,0.12)" stroke-width="1" stroke-dasharray="6 6"/>

    <!-- Interconnecting Mesh Links -->
    <g stroke="rgba(0,0,0,0.3)" stroke-width="1.2">
      <line x1="0" y1="0" x2="-100" y2="-70"/>
      <line x1="0" y1="0" x2="100" y2="-70"/>
      <line x1="0" y1="0" x2="120" y2="60"/>
      <line x1="0" y1="0" x2="-120" y2="60"/>
      <line x1="0" y1="0" x2="0" y2="130"/>
      <line x1="-100" y1="-70" x2="100" y2="-70"/>
      <line x1="100" y1="-70" x2="120" y2="60"/>
      <line x1="120" y1="60" x2="0" y2="130"/>
      <line x1="0" y1="130" x2="-120" y2="60"/>
      <line x1="-120" y1="60" x2="-100" y2="-70"/>
    </g>

    <!-- Node Squares (Pixel Precision) -->
    <rect x="-12" y="-12" width="24" height="24" fill="#0a0a0c"/>
    <rect x="-4" y="-4" width="8" height="8" fill="#16a34a"/>

    <rect x="-106" y="-76" width="12" height="12" fill="#ffffff" stroke="#0a0a0c" stroke-width="1.5"/>
    <rect x="94" y="-76" width="12" height="12" fill="#ffffff" stroke="#0a0a0c" stroke-width="1.5"/>
    <rect x="114" y="54" width="12" height="12" fill="#ffffff" stroke="#0a0a0c" stroke-width="1.5"/>
    <rect x="-126" y="54" width="12" height="12" fill="#ffffff" stroke="#0a0a0c" stroke-width="1.5"/>
    <rect x="-6" y="124" width="12" height="12" fill="#ffffff" stroke="#0a0a0c" stroke-width="1.5"/>
  </g>

  <!-- Tag Pill -->
  <g transform="translate(400, 470)">
    <rect x="-140" y="-16" width="280" height="32" rx="16" fill="#ffffff" stroke="rgba(0,0,0,0.15)" stroke-width="1"/>
    <text x="0" y="4" fill="rgba(0,0,0,0.8)" font-family="monospace" font-size="11" font-weight="600" letter-spacing="1.5" text-anchor="middle">NEXUS PROTOCOL // LIVE SPACE</text>
  </g>
</svg>
